Stairs_down_RAD
version=1
nRows=52
nColumns=18
inDegrees=no

Units are S.I. units (second, meters, Newtons, ...)
Angles are in degrees.

endheader
time	pelvis_tilt	pelvis_list	pelvis_rotation	pelvis_tx	pelvis_ty	pelvis_tz	hip_flexion_r	hip_adduction_r	hip_rotation_r	knee_angle_r	ankle_angle_r	hip_flexion_l	hip_adduction_l	hip_rotation_l	knee_angle_l	ankle_angle_l	lumbar_extension
0.683	-0.03299379	0.032936562	0.246113984	0.21690019	1.50654718	0.03133093	0.358886171	-0.044943257	0	-0.191624524	-0.631751814	0.231947362	0.096614304	0	-0.81907939	0.614941646	-0.0872665
0.692	-0.032132469	0.033349237	0.247841734	0.22061456	1.50282857	0.031282	0.351211402	-0.041815182	0	-0.183105063	-0.633766543	0.239646002	0.095419695	0	-0.846842981	0.623121977	-0.0872665
0.7	-0.03108628	0.033800807	0.249763252	0.22446809	1.49907105	0.03131439	0.344287865	-0.038584897	0	-0.177621291	-0.636250996	0.246416728	0.094009681	0	-0.874630862	0.630440575	-0.0872665
0.708	-0.030574703	0.034354026	0.250537429	0.22819782	1.4952805	0.03149201	0.339156737	-0.03526057	0	-0.17441449	-0.63954278	0.253397808	0.092830609	0	-0.901337048	0.638953356	-0.0872665
0.717	-0.030126729	0.035091155	0.251645239	0.23185279	1.49144875	0.03164863	0.33321929	-0.032176144	0	-0.17032945	-0.641451514	0.260978628	0.092040464	0	-0.928498507	0.646818013	-0.0872665
0.725	-0.029321294	0.035999534	0.25369182	0.23567557	1.48762943	0.03164762	0.326462093	-0.029541902	0	-0.166840512	-0.643218933	0.267723513	0.091171096	0	-0.955127238	0.654137661	-0.0872665
0.733	-0.028264675	0.036583198	0.254498193	0.23969528	1.4837915	0.03180541	0.32032155	-0.025948068	0	-0.165639249	-0.644378783	0.272783128	0.089161911	0	-0.980249561	0.660193374	-0.0872665
0.742	-0.02745262	0.037039861	0.255981829	0.24374029	1.47988327	0.03198479	0.313416671	-0.02235387	0	-0.163460328	-0.644928342	0.278492649	0.086749074	0	-1.006192253	0.663394206	-0.0872665
0.75	-0.02690975	0.03718678	0.257203756	0.24787948	1.47588058	0.03225925	0.305857176	-0.018201071	0	-0.159598837	-0.646622815	0.285378233	0.084015484	0	-1.033559843	0.666810231	-0.0872665
0.758	-0.025968413	0.037771715	0.258098412	0.25208562	1.47207827	0.03257933	0.297690949	-0.014171823	0	-0.15641133	-0.647591203	0.290827429	0.081707391	0	-1.058703481	0.67119006	-0.0872665
0.767	-0.025064846	0.038278115	0.259479635	0.25624449	1.46830582	0.03294109	0.289676131	-0.010231312	0	-0.153880793	-0.647728912	0.296151799	0.079264743	0	-1.083447137	0.675373486	-0.0872665
0.775	-0.024329692	0.038950207	0.260108701	0.26056222	1.46433901	0.03323477	0.28122811	-0.006386628	0	-0.15176877	-0.644288813	0.301274386	0.077305167	0	-1.107682292	0.679696392	-0.0872665
0.783	-0.023228519	0.039742997	0.259566322	0.26525495	1.46036107	0.03351367	0.27163312	-0.002768954	0	-0.150355101	-0.640982431	0.304641356	0.075356808	0	-1.131075774	0.681200605	-0.0872665
0.792	-0.021778863	0.040039251	0.259626916	0.2699896	1.45636402	0.03395557	0.261109075	0.001595003	0	-0.148977194	-0.637794298	0.308261834	0.072113102	0	-1.155644055	0.677877261	-0.0872665
0.8	-0.020203087	0.040574727	0.260580547	0.27484643	1.45247636	0.03431484	0.24953595	0.005977554	0	-0.146403499	-0.631712916	0.311885766	0.069220844	0	-1.18020137	0.675244079	-0.0872665
0.808	-0.018026175	0.040774222	0.260776296	0.27988442	1.44858115	0.03495018	0.236271712	0.011650481	0	-0.141029493	-0.615824857	0.315099879	0.065563697	0	-1.205065604	0.674581869	-0.0872665
0.817	-0.015371878	0.041834542	0.25863043	0.28490059	1.44470037	0.0355876	0.224503379	0.01626046	0	-0.14204136	-0.572676111	0.317423819	0.063504659	0	-1.229528576	0.672720884	-0.0872665
0.825	-0.013011792	0.042355435	0.257491146	0.28985891	1.4407643	0.03623333	0.213012494	0.020287737	0	-0.142217066	-0.529541791	0.321332814	0.060424505	0	-1.255963735	0.669045092	-0.0872665
0.833	-0.011076343	0.042699564	0.256384533	0.29514883	1.43674351	0.03685749	0.203023531	0.02376566	0	-0.146253057	-0.482018535	0.325680983	0.056946342	0	-1.282919993	0.662878217	-0.0872665
0.842	-0.008890923	0.042531769	0.255215392	0.30051583	1.43259033	0.03761104	0.193922877	0.027979883	0	-0.152462843	-0.436493965	0.331146508	0.05250516	0	-1.31191212	0.654196807	-0.0872665
0.85	-0.006665645	0.042459644	0.254430977	0.30563116	1.42835174	0.03837251	0.185685165	0.032354467	0	-0.160075927	-0.392077239	0.338487744	0.048068133	0	-1.343076348	0.641451037	-0.0872665
0.858	-0.004267311	0.041164773	0.255797693	0.31071354	1.42410537	0.03937909	0.176860345	0.038394676	0	-0.166025348	-0.354995111	0.348032718	0.040810012	0	-1.376365907	0.626154943	-0.0872665
0.867	-0.003406743	0.040636554	0.256110049	0.31530309	1.41970084	0.04026314	0.173918092	0.042512276	0	-0.17968335	-0.310033691	0.361922195	0.035441531	0	-1.411878484	0.601790574	-0.0872665
0.875	-0.002047435	0.039491575	0.256416465	0.31995127	1.415305	0.04114151	0.17044511	0.046710428	0	-0.190223081	-0.27286527	0.377380198	0.028695327	0	-1.448931889	0.570776264	-0.0872665
0.883	-0.000857876	0.03863907	0.256377707	0.32450079	1.41087553	0.04202115	0.169343346	0.049916484	0	-0.202467095	-0.237717653	0.393616249	0.022102542	0	-1.485069275	0.537191376	-0.0872665
0.892	0.000241577	0.037320083	0.255247699	0.32899187	1.4064832	0.04305881	0.170489845	0.053962992	0	-0.217005105	-0.204978774	0.410757865	0.014316854	0	-1.520054389	0.500678357	-0.0872665
0.9	0.001270564	0.036289399	0.253221489	0.33332552	1.40236982	0.04402091	0.173645155	0.058149639	0	-0.235938303	-0.172141689	0.428528909	0.007387453	0	-1.553229133	0.46096275	-0.0872665
0.908	0.002270546	0.035310489	0.249959375	0.33744028	1.39846833	0.04502105	0.178524481	0.062742138	0	-0.258448573	-0.137736137	0.447168752	0.000854639	0	-1.585611641	0.424567623	-0.0872665
0.917	0.003301894	0.034390679	0.245470578	0.34166594	1.39493062	0.0460238	0.182751445	0.067419056	0	-0.277795182	-0.110424104	0.464808701	-0.005734833	0	-1.615037817	0.389146553	-0.0872665
0.925	0.003532746	0.034100149	0.240537552	0.34580774	1.39172809	0.04683588	0.186726694	0.07069823	0	-0.294167569	-0.08757039	0.482185752	-0.011394327	0	-1.640586201	0.350894874	-0.0872665
0.933	0.00292271	0.034261471	0.234445799	0.34965135	1.38873939	0.04754394	0.19160973	0.072934791	0	-0.310370502	-0.066022552	0.50032658	-0.015968776	0	-1.663519794	0.319944772	-0.0872665
0.942	0.002996422	0.034775003	0.227173972	0.353505	1.38604362	0.04829916	0.195552943	0.075138712	0	-0.326314566	-0.045344124	0.516338098	-0.020271158	0	-1.684976067	0.303205901	-0.0872665
0.95	0.004110968	0.035157956	0.220192454	0.35759029	1.38372865	0.049166	0.196769688	0.077967228	0	-0.339728236	-0.027308936	0.529228774	-0.026218692	0	-1.704108043	0.298614535	-0.0872665
0.958	0.00435397	0.037526887	0.212507936	0.36162357	1.38173406	0.04971584	0.198706995	0.077749019	0	-0.354836126	-0.006405017	0.541270851	-0.028778473	0	-1.719091878	0.303361083	-0.0872665
0.967	0.004652856	0.038960155	0.204551525	0.36558528	1.38000969	0.05062291	0.200033484	0.078593974	0	-0.36749351	0.010681982	0.552909055	-0.034790002	0	-1.729472961	0.318584739	-0.0872665
0.975	0.005193034	0.039804099	0.196449738	0.36955494	1.37855245	0.05172244	0.200752373	0.080050519	0	-0.378694594	0.024638402	0.563724046	-0.043092341	0	-1.734783908	0.335553255	-0.0872665
0.983	0.005688619	0.040797218	0.188834958	0.37344379	1.37753334	0.05276308	0.201002704	0.081222847	0	-0.389172566	0.0359018	0.57362692	-0.051006154	0	-1.73673106	0.351178542	-0.0872665
0.992	0.005610898	0.041838747	0.181401424	0.37699012	1.37682455	0.05367302	0.201727442	0.081916489	0	-0.398601171	0.045097562	0.584082417	-0.057429327	0	-1.736489329	0.360820479	-0.0872665
1	0.005303538	0.043437296	0.17459012	0.3803139	1.37637165	0.05423841	0.202663131	0.081334919	0	-0.40738014	0.052038691	0.594789655	-0.060957435	0	-1.733557685	0.363878935	-0.0872665
1.008	0.005115547	0.045148502	0.167835897	0.38361149	1.37615632	0.05470511	0.203292542	0.080283798	0	-0.415476955	0.056975769	0.604878452	-0.063796727	0	-1.727264102	0.363695296	-0.0872665
1.017	0.004138423	0.046811141	0.160760383	0.386654	1.37619686	0.05524647	0.20502814	0.079224424	0	-0.422648338	0.059432706	0.615181008	-0.066637528	0	-1.71661209	0.361537297	-0.0872665
1.025	0.002732243	0.048789862	0.153551259	0.38937765	1.37656164	0.05578212	0.207616415	0.077807634	0	-0.42951041	0.058254411	0.624982031	-0.068530529	0	-1.701970801	0.359608646	-0.0872665
1.033	0.000715737	0.05109745	0.14772387	0.39193447	1.37705043	0.05595871	0.21076977	0.075468571	0	-0.436501561	0.056865158	0.635173276	-0.068361886	0	-1.684140393	0.356955508	-0.0872665
1.042	-0.000315543	0.053667775	0.142203956	0.3949296	1.37774212	0.05596703	0.210963676	0.072736882	0	-0.441129161	0.056504011	0.642299718	-0.066609989	0	-1.662584993	0.354307776	-0.0872665
1.05	-0.001366248	0.056343077	0.136354475	0.39794133	1.37857681	0.05587624	0.211056177	0.069600655	0	-0.445192703	0.056160537	0.648023606	-0.063899847	0	-1.637625765	0.350556336	-0.0872665
1.058	-0.002592797	0.059644914	0.131211374	0.40090349	1.37952147	0.05553046	0.21122969	0.065160393	0	-0.448856505	0.05514526	0.652647866	-0.060180612	0	-1.608919171	0.343162725	-0.0872665
1.067	-0.003584116	0.062723276	0.125580258	0.40380379	1.38049003	0.05522164	0.211148923	0.060965994	0	-0.452388523	0.054502867	0.655364016	-0.056524052	0	-1.576634031	0.336892529	-0.0872665
1.075	-0.004774186	0.066122315	0.120155492	0.40642986	1.38149917	0.05485651	0.210944268	0.056427132	0	-0.455133208	0.053008494	0.657696172	-0.051670593	0	-1.541918112	0.325471314	-0.0872665
1.083	-0.00582456	0.069673673	0.115562237	0.40916637	1.38262615	0.05444793	0.209407371	0.051891478	0	-0.456272284	0.051191235	0.658627015	-0.045793409	0	-1.504163598	0.309409117	-0.0872665
1.092	-0.006986618	0.072393156	0.111730101	0.41205957	1.38386104	0.05400976	0.206038296	0.047944198	0	-0.452199817	0.045256652	0.659402089	-0.040703487	0	-1.464246926	0.282413758	-0.0872665
1.1	-0.008063907	0.075858932	0.106643586	0.41490276	1.38495073	0.05346979	0.204296289	0.043057131	0	-0.451283785	0.040071129	0.658035371	-0.034341662	0	-1.421654831	0.25843711	-0.0872665
1.108	-0.009701264	0.079297801	0.101118581	0.41750317	1.38575336	0.05298093	0.204931736	0.038134029	0	-0.453816844	0.037787904	0.656914882	-0.028730101	0	-1.377574673	0.232905146	-0.0872665
